<svg width="228" height="13" viewBox="0 0 228 13" fill="none" xmlns="http://www.w3.org/2000/svg">
<path d="M7.40625 7.82812H8.54688C8.54688 8.64583 8.3125 9.26042 7.84375 9.67188C7.38021 10.0781 6.75 10.2812 5.95312 10.2812C5.40104 10.2812 4.92188 10.1536 4.51562 9.89844C4.11458 9.64323 3.80208 9.28906 3.57812 8.83594C3.35938 8.38281 3.25 7.85677 3.25 7.25781V6.35938C3.25 5.76042 3.35938 5.23438 3.57812 4.78125C3.80208 4.32812 4.11458 3.97396 4.51562 3.71875C4.92188 3.46354 5.40104 3.33594 5.95312 3.33594C6.75 3.33594 7.38281 3.53906 7.85156 3.94531C8.32031 4.35156 8.55469 4.96354 8.55469 5.78125H7.41406C7.41406 5.26562 7.28906 4.89583 7.03906 4.67188C6.79427 4.44792 6.43229 4.33594 5.95312 4.33594C5.60938 4.33594 5.32031 4.42188 5.08594 4.59375C4.85156 4.76562 4.67448 5.00521 4.55469 5.3125C4.4349 5.61458 4.375 5.96094 4.375 6.35156V7.25781C4.375 7.65365 4.4349 8.00521 4.55469 8.3125C4.67448 8.61458 4.85156 8.85156 5.08594 9.02344C5.32031 9.19531 5.60938 9.28125 5.95312 9.28125C6.43229 9.28125 6.79427 9.16927 7.03906 8.94531C7.28385 8.72135 7.40625 8.34896 7.40625 7.82812ZM1.41406 6.80469C1.41406 7.4974 1.53385 8.14323 1.77344 8.74219C2.01302 9.34115 2.34635 9.86458 2.77344 10.3125C3.20052 10.7604 3.69531 11.1094 4.25781 11.3594C4.82031 11.6094 5.42188 11.7344 6.0625 11.7344C6.70312 11.7344 7.30208 11.6094 7.85938 11.3594C8.42188 11.1094 8.91406 10.7604 9.33594 10.3125C9.76302 9.86458 10.0964 9.34115 10.3359 8.74219C10.5755 8.14323 10.6953 7.4974 10.6953 6.80469C10.6953 6.10677 10.5755 5.46094 10.3359 4.86719C10.0964 4.27344 9.76302 3.75521 9.33594 3.3125C8.91406 2.86458 8.42188 2.51823 7.85938 2.27344C7.30208 2.02344 6.70312 1.89844 6.0625 1.89844C5.42188 1.89844 4.82031 2.02344 4.25781 2.27344C3.69531 2.51823 3.20052 2.86458 2.77344 3.3125C2.34635 3.75521 2.01302 4.27344 1.77344 4.86719C1.53385 5.46094 1.41406 6.10677 1.41406 6.80469ZM0.515625 6.80469C0.515625 5.97656 0.658854 5.20833 0.945312 4.5C1.23177 3.79167 1.63021 3.17448 2.14062 2.64844C2.65104 2.11719 3.23958 1.70573 3.90625 1.41406C4.57812 1.11719 5.29688 0.96875 6.0625 0.96875C6.82812 0.96875 7.54427 1.11719 8.21094 1.41406C8.88281 1.70573 9.47135 2.11719 9.97656 2.64844C10.487 3.17448 10.8854 3.79167 11.1719 4.5C11.4583 5.20833 11.6016 5.97656 11.6016 6.80469C11.6016 7.63281 11.4583 8.40104 11.1719 9.10938C10.8854 9.81771 10.487 10.4401 9.97656 10.9766C9.47135 11.5078 8.88281 11.9219 8.21094 12.2188C7.54427 12.5156 6.82812 12.6641 6.0625 12.6641C5.29688 12.6641 4.57812 12.5156 3.90625 12.2188C3.23958 11.9219 2.65104 11.5078 2.14062 10.9766C1.63021 10.4401 1.23177 9.81771 0.945312 9.10938C0.658854 8.40104 0.515625 7.63281 0.515625 6.80469ZM25.0622 11.3125V12.5H17.6169V11.4609L21.3434 7.3125C21.8018 6.80208 22.1559 6.36979 22.4059 6.01562C22.6611 5.65625 22.8382 5.33594 22.9372 5.05469C23.0414 4.76823 23.0934 4.47656 23.0934 4.17969C23.0934 3.80469 23.0153 3.46615 22.8591 3.16406C22.708 2.85677 22.4841 2.61198 22.1872 2.42969C21.8903 2.2474 21.5309 2.15625 21.1091 2.15625C20.6039 2.15625 20.182 2.25521 19.8434 2.45312C19.5101 2.64583 19.2601 2.91667 19.0934 3.26562C18.9268 3.61458 18.8434 4.01562 18.8434 4.46875H17.3981C17.3981 3.82812 17.5387 3.24219 17.82 2.71094C18.1012 2.17969 18.5179 1.75781 19.07 1.44531C19.6221 1.1276 20.3018 0.96875 21.1091 0.96875C21.8278 0.96875 22.4424 1.09635 22.9528 1.35156C23.4632 1.60156 23.8539 1.95573 24.1247 2.41406C24.4007 2.86719 24.5387 3.39844 24.5387 4.00781C24.5387 4.34115 24.4815 4.67969 24.3669 5.02344C24.2575 5.36198 24.1039 5.70052 23.9059 6.03906C23.7132 6.3776 23.4867 6.71094 23.2262 7.03906C22.971 7.36719 22.6976 7.6901 22.4059 8.00781L19.3591 11.3125H25.0622ZM33.9097 5.90625V7.64062C33.9097 8.57292 33.8263 9.35938 33.6597 10C33.493 10.6406 33.2534 11.1562 32.9409 11.5469C32.6284 11.9375 32.2508 12.2214 31.8081 12.3984C31.3706 12.5703 30.8758 12.6562 30.3237 12.6562C29.8862 12.6562 29.4826 12.6016 29.1128 12.4922C28.743 12.3828 28.4097 12.2083 28.1128 11.9688C27.8211 11.724 27.5711 11.4062 27.3628 11.0156C27.1545 10.625 26.9956 10.151 26.8862 9.59375C26.7769 9.03646 26.7222 8.38542 26.7222 7.64062V5.90625C26.7222 4.97396 26.8055 4.19271 26.9722 3.5625C27.1441 2.93229 27.3862 2.42708 27.6987 2.04688C28.0112 1.66146 28.3862 1.38542 28.8237 1.21875C29.2665 1.05208 29.7612 0.96875 30.3081 0.96875C30.7508 0.96875 31.1571 1.02344 31.5269 1.13281C31.9019 1.23698 32.2352 1.40625 32.5269 1.64062C32.8185 1.86979 33.0659 2.17708 33.2691 2.5625C33.4774 2.94271 33.6362 3.40885 33.7456 3.96094C33.855 4.51302 33.9097 5.16146 33.9097 5.90625ZM32.4566 7.875V5.66406C32.4566 5.15365 32.4253 4.70573 32.3628 4.32031C32.3055 3.92969 32.2196 3.59635 32.105 3.32031C31.9904 3.04427 31.8446 2.82031 31.6675 2.64844C31.4956 2.47656 31.2951 2.35156 31.0659 2.27344C30.842 2.1901 30.5894 2.14844 30.3081 2.14844C29.9644 2.14844 29.6597 2.21354 29.3941 2.34375C29.1284 2.46875 28.9045 2.66927 28.7222 2.94531C28.5451 3.22135 28.4097 3.58333 28.3159 4.03125C28.2222 4.47917 28.1753 5.02344 28.1753 5.66406V7.875C28.1753 8.38542 28.204 8.83594 28.2612 9.22656C28.3237 9.61719 28.4149 9.95573 28.5347 10.2422C28.6545 10.5234 28.8003 10.7552 28.9722 10.9375C29.1441 11.1198 29.342 11.2552 29.5659 11.3438C29.7951 11.4271 30.0477 11.4688 30.3237 11.4688C30.6779 11.4688 30.9878 11.401 31.2534 11.2656C31.5191 11.1302 31.7404 10.9193 31.9175 10.6328C32.0998 10.3411 32.2352 9.96875 32.3237 9.51562C32.4123 9.05729 32.4566 8.51042 32.4566 7.875ZM43.3822 11.3125V12.5H35.9369V11.4609L39.6634 7.3125C40.1218 6.80208 40.4759 6.36979 40.7259 6.01562C40.9811 5.65625 41.1582 5.33594 41.2572 5.05469C41.3614 4.76823 41.4134 4.47656 41.4134 4.17969C41.4134 3.80469 41.3353 3.46615 41.1791 3.16406C41.028 2.85677 40.8041 2.61198 40.5072 2.42969C40.2103 2.2474 39.8509 2.15625 39.4291 2.15625C38.9239 2.15625 38.502 2.25521 38.1634 2.45312C37.8301 2.64583 37.5801 2.91667 37.4134 3.26562C37.2468 3.61458 37.1634 4.01562 37.1634 4.46875H35.7181C35.7181 3.82812 35.8587 3.24219 36.14 2.71094C36.4212 2.17969 36.8379 1.75781 37.39 1.44531C37.9421 1.1276 38.6218 0.96875 39.4291 0.96875C40.1478 0.96875 40.7624 1.09635 41.2728 1.35156C41.7832 1.60156 42.1739 1.95573 42.4447 2.41406C42.7207 2.86719 42.8587 3.39844 42.8587 4.00781C42.8587 4.34115 42.8015 4.67969 42.6869 5.02344C42.5775 5.36198 42.4239 5.70052 42.2259 6.03906C42.0332 6.3776 41.8067 6.71094 41.5462 7.03906C41.291 7.36719 41.0176 7.6901 40.7259 8.00781L37.6791 11.3125H43.3822ZM47.1984 6.10156H48.2297C48.7349 6.10156 49.1516 6.01823 49.4797 5.85156C49.813 5.67969 50.0604 5.44792 50.2219 5.15625C50.3885 4.85938 50.4719 4.52604 50.4719 4.15625C50.4719 3.71875 50.399 3.35156 50.2531 3.05469C50.1073 2.75781 49.8885 2.53385 49.5969 2.38281C49.3052 2.23177 48.9354 2.15625 48.4875 2.15625C48.0813 2.15625 47.7219 2.23698 47.4094 2.39844C47.1021 2.55469 46.8599 2.77865 46.6828 3.07031C46.5109 3.36198 46.425 3.70573 46.425 4.10156H44.9797C44.9797 3.52344 45.1255 2.9974 45.4172 2.52344C45.7089 2.04948 46.1177 1.67188 46.6438 1.39062C47.175 1.10938 47.7896 0.96875 48.4875 0.96875C49.175 0.96875 49.7766 1.09115 50.2922 1.33594C50.8078 1.57552 51.2089 1.9349 51.4953 2.41406C51.7818 2.88802 51.925 3.47917 51.925 4.1875C51.925 4.47396 51.8573 4.78125 51.7219 5.10938C51.5917 5.43229 51.3859 5.73438 51.1047 6.01562C50.8286 6.29688 50.4693 6.52865 50.0266 6.71094C49.5839 6.88802 49.0526 6.97656 48.4328 6.97656H47.1984V6.10156ZM47.1984 7.28906V6.42188H48.4328C49.1568 6.42188 49.7557 6.50781 50.2297 6.67969C50.7036 6.85156 51.076 7.08073 51.3469 7.36719C51.6229 7.65365 51.8156 7.96875 51.925 8.3125C52.0396 8.65104 52.0969 8.98958 52.0969 9.32812C52.0969 9.85938 52.0057 10.3307 51.8234 10.7422C51.6464 11.1536 51.3938 11.5026 51.0656 11.7891C50.7427 12.0755 50.3625 12.2917 49.925 12.4375C49.4875 12.5833 49.0109 12.6562 48.4953 12.6562C48.0005 12.6562 47.5344 12.5859 47.0969 12.4453C46.6646 12.3047 46.2818 12.1016 45.9484 11.8359C45.6151 11.5651 45.3547 11.2344 45.1672 10.8438C44.9797 10.4479 44.8859 9.9974 44.8859 9.49219H46.3313C46.3313 9.88802 46.4172 10.2344 46.5891 10.5312C46.7661 10.8281 47.0161 11.0599 47.3391 11.2266C47.6672 11.388 48.0526 11.4688 48.4953 11.4688C48.938 11.4688 49.3182 11.3932 49.6359 11.2422C49.9589 11.0859 50.2063 10.8516 50.3781 10.5391C50.5552 10.2266 50.6438 9.83333 50.6438 9.35938C50.6438 8.88542 50.5448 8.4974 50.3469 8.19531C50.149 7.88802 49.8677 7.66146 49.5031 7.51562C49.1438 7.36458 48.7193 7.28906 48.2297 7.28906H47.1984ZM62.9637 2.13281L59.1981 12.5H57.6591L61.995 1.125H62.9872L62.9637 2.13281ZM66.12 12.5L62.3466 2.13281L62.3231 1.125H63.3153L67.6669 12.5H66.12ZM65.9247 8.28906V9.52344H59.5341V8.28906H65.9247ZM76.2487 11.2734V12.5H70.5612V11.2734H76.2487ZM70.8581 1.125V12.5H69.3503V1.125H70.8581ZM85.0338 11.2734V12.5H79.3463V11.2734H85.0338ZM79.6431 1.125V12.5H78.1353V1.125H79.6431ZM91.0491 1.125H94.8147C95.6689 1.125 96.3902 1.25521 96.9788 1.51562C97.5725 1.77604 98.023 2.16146 98.3303 2.67188C98.6428 3.17708 98.7991 3.79948 98.7991 4.53906C98.7991 5.0599 98.6923 5.53646 98.4788 5.96875C98.2704 6.39583 97.9683 6.76042 97.5725 7.0625C97.1819 7.35938 96.7131 7.58073 96.1663 7.72656L95.7444 7.89062H92.2053L92.1897 6.66406H94.8616C95.4032 6.66406 95.8538 6.57031 96.2131 6.38281C96.5725 6.1901 96.8433 5.93229 97.0256 5.60938C97.2079 5.28646 97.2991 4.92969 97.2991 4.53906C97.2991 4.10156 97.2131 3.71875 97.0413 3.39062C96.8694 3.0625 96.5986 2.8099 96.2288 2.63281C95.8642 2.45052 95.3928 2.35938 94.8147 2.35938H92.5569V12.5H91.0491V1.125ZM97.6975 12.5L94.9319 7.34375L96.5022 7.33594L99.3069 12.4062V12.5H97.6975ZM102.686 1.125V12.5H101.178V1.125H102.686ZM113.994 6.83594V11C113.853 11.2083 113.629 11.4427 113.322 11.7031C113.015 11.9583 112.59 12.1823 112.049 12.375C111.512 12.5625 110.82 12.6562 109.971 12.6562C109.278 12.6562 108.64 12.5365 108.057 12.2969C107.478 12.0521 106.976 11.6979 106.549 11.2344C106.127 10.7656 105.799 10.1979 105.564 9.53125C105.335 8.85938 105.221 8.09896 105.221 7.25V6.36719C105.221 5.51823 105.32 4.76042 105.518 4.09375C105.721 3.42708 106.018 2.86198 106.408 2.39844C106.799 1.92969 107.278 1.57552 107.846 1.33594C108.413 1.09115 109.064 0.96875 109.799 0.96875C110.669 0.96875 111.395 1.11979 111.978 1.42188C112.567 1.71875 113.025 2.13021 113.353 2.65625C113.687 3.18229 113.9 3.78125 113.994 4.45312H112.486C112.419 4.04167 112.283 3.66667 112.08 3.32812C111.882 2.98958 111.598 2.71875 111.228 2.51562C110.859 2.30729 110.382 2.20312 109.799 2.20312C109.273 2.20312 108.817 2.29948 108.432 2.49219C108.046 2.6849 107.728 2.96094 107.478 3.32031C107.228 3.67969 107.041 4.11458 106.916 4.625C106.796 5.13542 106.736 5.71094 106.736 6.35156V7.25C106.736 7.90625 106.812 8.49219 106.963 9.00781C107.119 9.52344 107.34 9.96354 107.627 10.3281C107.913 10.6875 108.254 10.9609 108.65 11.1484C109.051 11.3359 109.494 11.4297 109.978 11.4297C110.515 11.4297 110.95 11.3854 111.283 11.2969C111.616 11.2031 111.877 11.0938 112.064 10.9688C112.252 10.8385 112.395 10.7161 112.494 10.6016V8.05469H109.861V6.83594H113.994ZM124.084 6.01562V7.24219H117.927V6.01562H124.084ZM118.162 1.125V12.5H116.654V1.125H118.162ZM125.396 1.125V12.5H123.896V1.125H125.396ZM132.205 1.125V12.5H130.72V1.125H132.205ZM135.861 1.125V2.35938H127.072V1.125H135.861ZM143.646 9.625C143.646 9.35938 143.604 9.125 143.521 8.92188C143.443 8.71354 143.302 8.52604 143.099 8.35938C142.901 8.19271 142.625 8.03385 142.271 7.88281C141.922 7.73177 141.479 7.57812 140.943 7.42188C140.38 7.25521 139.872 7.07031 139.419 6.86719C138.966 6.65885 138.578 6.42188 138.255 6.15625C137.932 5.89062 137.685 5.58594 137.513 5.24219C137.341 4.89844 137.255 4.50521 137.255 4.0625C137.255 3.61979 137.346 3.21094 137.529 2.83594C137.711 2.46094 137.971 2.13542 138.31 1.85938C138.654 1.57812 139.063 1.35938 139.537 1.20312C140.011 1.04688 140.539 0.96875 141.122 0.96875C141.977 0.96875 142.701 1.13281 143.294 1.46094C143.893 1.78385 144.349 2.20833 144.662 2.73438C144.974 3.25521 145.13 3.8125 145.13 4.40625H143.63C143.63 3.97917 143.539 3.60156 143.357 3.27344C143.175 2.9401 142.899 2.67969 142.529 2.49219C142.159 2.29948 141.69 2.20312 141.122 2.20312C140.586 2.20312 140.143 2.28385 139.794 2.44531C139.445 2.60677 139.185 2.82552 139.013 3.10156C138.846 3.3776 138.763 3.69271 138.763 4.04688C138.763 4.28646 138.813 4.50521 138.912 4.70312C139.016 4.89583 139.175 5.07552 139.388 5.24219C139.607 5.40885 139.883 5.5625 140.216 5.70312C140.555 5.84375 140.958 5.97917 141.427 6.10938C142.073 6.29167 142.63 6.49479 143.099 6.71875C143.568 6.94271 143.953 7.19531 144.255 7.47656C144.563 7.7526 144.789 8.06771 144.935 8.42188C145.086 8.77083 145.162 9.16667 145.162 9.60938C145.162 10.0729 145.068 10.4922 144.88 10.8672C144.693 11.2422 144.425 11.5625 144.076 11.8281C143.727 12.0938 143.307 12.2995 142.818 12.4453C142.333 12.5859 141.792 12.6562 141.193 12.6562C140.667 12.6562 140.149 12.5833 139.638 12.4375C139.133 12.2917 138.672 12.0729 138.255 11.7812C137.844 11.4896 137.513 11.1302 137.263 10.7031C137.018 10.2708 136.896 9.77083 136.896 9.20312H138.396C138.396 9.59375 138.471 9.92969 138.622 10.2109C138.774 10.487 138.979 10.7161 139.24 10.8984C139.505 11.0807 139.805 11.2161 140.138 11.3047C140.477 11.388 140.828 11.4297 141.193 11.4297C141.719 11.4297 142.164 11.3568 142.529 11.2109C142.893 11.0651 143.169 10.8568 143.357 10.5859C143.55 10.3151 143.646 9.99479 143.646 9.625ZM151.372 1.125H155.138C155.992 1.125 156.713 1.25521 157.302 1.51562C157.896 1.77604 158.346 2.16146 158.653 2.67188C158.966 3.17708 159.122 3.79948 159.122 4.53906C159.122 5.0599 159.015 5.53646 158.802 5.96875C158.594 6.39583 158.291 6.76042 157.896 7.0625C157.505 7.35938 157.036 7.58073 156.489 7.72656L156.068 7.89062H152.528L152.513 6.66406H155.185C155.726 6.66406 156.177 6.57031 156.536 6.38281C156.896 6.1901 157.166 5.93229 157.349 5.60938C157.531 5.28646 157.622 4.92969 157.622 4.53906C157.622 4.10156 157.536 3.71875 157.364 3.39062C157.193 3.0625 156.922 2.8099 156.552 2.63281C156.187 2.45052 155.716 2.35938 155.138 2.35938H152.88V12.5H151.372V1.125ZM158.021 12.5L155.255 7.34375L156.825 7.33594L159.63 12.4062V12.5H158.021ZM168.618 11.2734V12.5H162.595V11.2734H168.618ZM162.899 1.125V12.5H161.392V1.125H162.899ZM167.821 6.01562V7.24219H162.595V6.01562H167.821ZM168.54 1.125V2.35938H162.595V1.125H168.54ZM176.708 9.625C176.708 9.35938 176.666 9.125 176.583 8.92188C176.505 8.71354 176.364 8.52604 176.161 8.35938C175.963 8.19271 175.687 8.03385 175.333 7.88281C174.984 7.73177 174.541 7.57812 174.005 7.42188C173.442 7.25521 172.934 7.07031 172.481 6.86719C172.028 6.65885 171.64 6.42188 171.317 6.15625C170.994 5.89062 170.747 5.58594 170.575 5.24219C170.403 4.89844 170.317 4.50521 170.317 4.0625C170.317 3.61979 170.408 3.21094 170.591 2.83594C170.773 2.46094 171.033 2.13542 171.372 1.85938C171.716 1.57812 172.124 1.35938 172.598 1.20312C173.072 1.04688 173.601 0.96875 174.184 0.96875C175.039 0.96875 175.762 1.13281 176.356 1.46094C176.955 1.78385 177.411 2.20833 177.723 2.73438C178.036 3.25521 178.192 3.8125 178.192 4.40625H176.692C176.692 3.97917 176.601 3.60156 176.419 3.27344C176.236 2.9401 175.96 2.67969 175.591 2.49219C175.221 2.29948 174.752 2.20312 174.184 2.20312C173.648 2.20312 173.205 2.28385 172.856 2.44531C172.507 2.60677 172.247 2.82552 172.075 3.10156C171.908 3.3776 171.825 3.69271 171.825 4.04688C171.825 4.28646 171.874 4.50521 171.973 4.70312C172.078 4.89583 172.236 5.07552 172.45 5.24219C172.669 5.40885 172.945 5.5625 173.278 5.70312C173.617 5.84375 174.02 5.97917 174.489 6.10938C175.135 6.29167 175.692 6.49479 176.161 6.71875C176.63 6.94271 177.015 7.19531 177.317 7.47656C177.624 7.7526 177.851 8.06771 177.997 8.42188C178.148 8.77083 178.223 9.16667 178.223 9.60938C178.223 10.0729 178.13 10.4922 177.942 10.8672C177.755 11.2422 177.486 11.5625 177.137 11.8281C176.789 12.0938 176.369 12.2995 175.88 12.4453C175.395 12.5859 174.854 12.6562 174.255 12.6562C173.729 12.6562 173.21 12.5833 172.7 12.4375C172.195 12.2917 171.734 12.0729 171.317 11.7812C170.906 11.4896 170.575 11.1302 170.325 10.7031C170.08 10.2708 169.958 9.77083 169.958 9.20312H171.458C171.458 9.59375 171.533 9.92969 171.684 10.2109C171.835 10.487 172.041 10.7161 172.302 10.8984C172.567 11.0807 172.867 11.2161 173.2 11.3047C173.539 11.388 173.89 11.4297 174.255 11.4297C174.781 11.4297 175.226 11.3568 175.591 11.2109C175.955 11.0651 176.231 10.8568 176.419 10.5859C176.611 10.3151 176.708 9.99479 176.708 9.625ZM187.532 11.2734V12.5H181.508V11.2734H187.532ZM181.813 1.125V12.5H180.305V1.125H181.813ZM186.735 6.01562V7.24219H181.508V6.01562H186.735ZM187.454 1.125V2.35938H181.508V1.125H187.454ZM189.559 1.125H193.325C194.179 1.125 194.9 1.25521 195.489 1.51562C196.083 1.77604 196.533 2.16146 196.84 2.67188C197.153 3.17708 197.309 3.79948 197.309 4.53906C197.309 5.0599 197.202 5.53646 196.989 5.96875C196.78 6.39583 196.478 6.76042 196.083 7.0625C195.692 7.35938 195.223 7.58073 194.676 7.72656L194.254 7.89062H190.715L190.7 6.66406H193.372C193.913 6.66406 194.364 6.57031 194.723 6.38281C195.083 6.1901 195.353 5.93229 195.536 5.60938C195.718 5.28646 195.809 4.92969 195.809 4.53906C195.809 4.10156 195.723 3.71875 195.551 3.39062C195.379 3.0625 195.109 2.8099 194.739 2.63281C194.374 2.45052 193.903 2.35938 193.325 2.35938H191.067V12.5H189.559V1.125ZM196.208 12.5L193.442 7.34375L195.012 7.33594L197.817 12.4062V12.5H196.208ZM203.094 10.7734L206.446 1.125H208.078L203.867 12.5H202.703L203.094 10.7734ZM199.961 1.125L203.282 10.7734L203.696 12.5H202.532L198.328 1.125H199.961ZM216.996 11.2734V12.5H210.973V11.2734H216.996ZM211.277 1.125V12.5H209.77V1.125H211.277ZM216.199 6.01562V7.24219H210.973V6.01562H216.199ZM216.918 1.125V2.35938H210.973V1.125H216.918ZM222.102 12.5H219.727L219.742 11.2734H222.102C222.914 11.2734 223.591 11.1042 224.133 10.7656C224.674 10.4219 225.081 9.94271 225.352 9.32812C225.628 8.70833 225.766 7.98438 225.766 7.15625V6.46094C225.766 5.8099 225.688 5.23177 225.531 4.72656C225.375 4.21615 225.146 3.78646 224.844 3.4375C224.542 3.08333 224.172 2.8151 223.734 2.63281C223.302 2.45052 222.805 2.35938 222.242 2.35938H219.68V1.125H222.242C222.987 1.125 223.667 1.25 224.281 1.5C224.896 1.74479 225.424 2.10156 225.867 2.57031C226.315 3.03385 226.659 3.59635 226.898 4.25781C227.138 4.91406 227.258 5.65365 227.258 6.47656V7.15625C227.258 7.97917 227.138 8.72135 226.898 9.38281C226.659 10.0391 226.312 10.599 225.859 11.0625C225.411 11.526 224.87 11.8828 224.234 12.1328C223.604 12.3776 222.893 12.5 222.102 12.5ZM220.531 1.125V12.5H219.023V1.125H220.531Z" fill="#959CB6"/>
</svg>
