<svg width="37" height="37" viewBox="0 0 37 37" fill="none" xmlns="http://www.w3.org/2000/svg">
<g clip-path="url(#clip0_204_6)" filter="url(#filter0_d_204_6)">
<path d="M32.227 14.8225C32.227 13.8709 32.1499 12.914 31.9853 11.9778H18.78V17.3689H26.342C26.0283 19.1077 25.02 20.6458 23.5436 21.6232V25.1213H28.0551C30.7044 22.6829 32.227 19.082 32.227 14.8225Z" fill="#4285F4"/>
<path d="M18.78 28.501C22.5559 28.501 25.7402 27.2612 28.0602 25.1213L23.5487 21.6232C22.2935 22.4771 20.6731 22.9607 18.7852 22.9607C15.1328 22.9607 12.036 20.4966 10.9248 17.1837H6.26929V20.7898C8.64592 25.5174 13.4866 28.501 18.78 28.501Z" fill="#34A853"/>
<path d="M10.9197 17.1837C10.3332 15.4449 10.3332 13.5621 10.9197 11.8234V8.21729H6.26928C4.28361 12.1732 4.28361 16.8339 6.26928 20.7898L10.9197 17.1837Z" fill="#FBBC04"/>
<path d="M18.78 6.04127C20.776 6.01041 22.7051 6.76146 24.1506 8.14012L28.1477 4.14305C25.6167 1.76642 22.2575 0.45979 18.78 0.500943C13.4866 0.500943 8.64592 3.48459 6.26929 8.21728L10.9197 11.8234C12.0257 8.50536 15.1276 6.04127 18.78 6.04127Z" fill="#EA4335"/>
</g>
<defs>
<filter id="filter0_d_204_6" x="0.5" y="0.5" width="36" height="36" filterUnits="userSpaceOnUse" color-interpolation-filters="sRGB">
<feFlood flood-opacity="0" result="BackgroundImageFix"/>
<feColorMatrix in="SourceAlpha" type="matrix" values="0 0 0 0 0 0 0 0 0 0 0 0 0 0 0 0 0 0 127 0" result="hardAlpha"/>
<feOffset dy="4"/>
<feGaussianBlur stdDeviation="2"/>
<feComposite in2="hardAlpha" operator="out"/>
<feColorMatrix type="matrix" values="0 0 0 0 0 0 0 0 0 0 0 0 0 0 0 0 0 0 0.25 0"/>
<feBlend mode="normal" in2="BackgroundImageFix" result="effect1_dropShadow_204_6"/>
<feBlend mode="normal" in="SourceGraphic" in2="effect1_dropShadow_204_6" result="shape"/>
</filter>
<clipPath id="clip0_204_6">
<rect width="28" height="28" fill="white" transform="translate(4.5 0.5)"/>
</clipPath>
</defs>
</svg>
