<svg width="396" height="37" viewBox="0 0 396 37" fill="none" xmlns="http://www.w3.org/2000/svg">
<g filter="url(#filter0_d_110_12)">
<line x1="4" y1="18" x2="173.5" y2="18" stroke="#CFDFE2"/>
<path d="M199.779 17.4531V18.1719C199.779 19.026 199.673 19.7917 199.459 20.4688C199.246 21.1458 198.938 21.7214 198.537 22.1953C198.136 22.6693 197.654 23.0312 197.092 23.2812C196.535 23.5312 195.91 23.6562 195.217 23.6562C194.545 23.6562 193.928 23.5312 193.365 23.2812C192.808 23.0312 192.324 22.6693 191.912 22.1953C191.506 21.7214 191.191 21.1458 190.967 20.4688C190.743 19.7917 190.631 19.026 190.631 18.1719V17.4531C190.631 16.599 190.74 15.8359 190.959 15.1641C191.183 14.487 191.498 13.9115 191.904 13.4375C192.311 12.9583 192.792 12.5938 193.35 12.3438C193.912 12.0938 194.529 11.9688 195.201 11.9688C195.894 11.9688 196.519 12.0938 197.076 12.3438C197.639 12.5938 198.121 12.9583 198.522 13.4375C198.928 13.9115 199.238 14.487 199.451 15.1641C199.67 15.8359 199.779 16.599 199.779 17.4531ZM198.287 18.1719V17.4375C198.287 16.7604 198.217 16.1615 198.076 15.6406C197.941 15.1198 197.74 14.6823 197.475 14.3281C197.209 13.974 196.884 13.7057 196.498 13.5234C196.118 13.3411 195.686 13.25 195.201 13.25C194.733 13.25 194.308 13.3411 193.928 13.5234C193.553 13.7057 193.23 13.974 192.959 14.3281C192.693 14.6823 192.488 15.1198 192.342 15.6406C192.196 16.1615 192.123 16.7604 192.123 17.4375V18.1719C192.123 18.8542 192.196 19.4583 192.342 19.9844C192.488 20.5052 192.696 20.9453 192.967 21.3047C193.243 21.6589 193.568 21.9271 193.943 22.1094C194.324 22.2917 194.748 22.3828 195.217 22.3828C195.706 22.3828 196.141 22.2917 196.522 22.1094C196.902 21.9271 197.222 21.6589 197.483 21.3047C197.748 20.9453 197.949 20.5052 198.084 19.9844C198.219 19.4583 198.287 18.8542 198.287 18.1719ZM203.424 16.375V23.5H201.978V15.0469H203.385L203.424 16.375ZM206.064 15L206.057 16.3438C205.937 16.3177 205.822 16.3021 205.713 16.2969C205.609 16.2865 205.489 16.2812 205.353 16.2812C205.02 16.2812 204.726 16.3333 204.471 16.4375C204.215 16.5417 203.999 16.6875 203.822 16.875C203.645 17.0625 203.504 17.2865 203.4 17.5469C203.301 17.8021 203.236 18.0833 203.205 18.3906L202.799 18.625C202.799 18.1146 202.848 17.6354 202.947 17.1875C203.051 16.7396 203.21 16.3438 203.424 16C203.637 15.651 203.908 15.3802 204.236 15.1875C204.57 14.9896 204.965 14.8906 205.424 14.8906C205.528 14.8906 205.648 14.9036 205.783 14.9297C205.919 14.9505 206.012 14.974 206.064 15Z" fill="#294957"/>
<line x1="222.5" y1="18" x2="392" y2="18" stroke="#CFDFE2"/>
</g>
<defs>
<filter id="filter0_d_110_12" x="0" y="0.5" width="396" height="44" filterUnits="userSpaceOnUse" color-interpolation-filters="sRGB">
<feFlood flood-opacity="0" result="BackgroundImageFix"/>
<feColorMatrix in="SourceAlpha" type="matrix" values="0 0 0 0 0 0 0 0 0 0 0 0 0 0 0 0 0 0 127 0" result="hardAlpha"/>
<feOffset dy="4"/>
<feGaussianBlur stdDeviation="2"/>
<feComposite in2="hardAlpha" operator="out"/>
<feColorMatrix type="matrix" values="0 0 0 0 0 0 0 0 0 0 0 0 0 0 0 0 0 0 0.25 0"/>
<feBlend mode="normal" in2="BackgroundImageFix" result="effect1_dropShadow_110_12"/>
<feBlend mode="normal" in="SourceGraphic" in2="effect1_dropShadow_110_12" result="shape"/>
</filter>
</defs>
</svg>
